<mxfile host="app.diagrams.net" modified="2022-01-25T07:20:07.624Z" agent="5.0 (Windows NT 10.0; WOW64) AppleWebKit/537.36 (KHTML, like Gecko) Chrome/97.0.4692.71 Safari/537.36" etag="kJwUxJOv1M4qlQQSU-ZJ" version="16.4.6" type="github">
  <diagram id="REx85cxThE-S5Ls0RKLB" name="Page-1">
    <mxGraphModel dx="1422" dy="762" grid="1" gridSize="10" guides="1" tooltips="1" connect="1" arrows="1" fold="1" page="1" pageScale="1" pageWidth="827" pageHeight="1169" math="0" shadow="0">
      <root>
        <mxCell id="0" />
        <mxCell id="1" parent="0" />
        <mxCell id="8Ab9fepXF7-iKCmWJqEk-32" style="edgeStyle=orthogonalEdgeStyle;rounded=0;orthogonalLoop=1;jettySize=auto;html=1;entryX=0.5;entryY=0;entryDx=0;entryDy=0;entryPerimeter=0;" edge="1" parent="1" source="8Ab9fepXF7-iKCmWJqEk-23" target="8Ab9fepXF7-iKCmWJqEk-21">
          <mxGeometry relative="1" as="geometry">
            <Array as="points">
              <mxPoint x="160" y="600" />
              <mxPoint x="160" y="600" />
            </Array>
          </mxGeometry>
        </mxCell>
        <mxCell id="8Ab9fepXF7-iKCmWJqEk-33" style="edgeStyle=orthogonalEdgeStyle;rounded=0;orthogonalLoop=1;jettySize=auto;html=1;entryX=0.6;entryY=-0.014;entryDx=0;entryDy=0;entryPerimeter=0;" edge="1" parent="1" source="8Ab9fepXF7-iKCmWJqEk-23" target="8Ab9fepXF7-iKCmWJqEk-29">
          <mxGeometry relative="1" as="geometry">
            <Array as="points">
              <mxPoint x="490" y="590" />
              <mxPoint x="490" y="590" />
            </Array>
          </mxGeometry>
        </mxCell>
        <mxCell id="8Ab9fepXF7-iKCmWJqEk-23" value="" style="rounded=0;whiteSpace=wrap;html=1;fillColor=#ffe6cc;strokeColor=#d79b00;" vertex="1" parent="1">
          <mxGeometry x="100" y="500" width="480" height="80" as="geometry" />
        </mxCell>
        <mxCell id="8Ab9fepXF7-iKCmWJqEk-1" value="单机简单示意图" style="text;html=1;strokeColor=none;fillColor=none;align=center;verticalAlign=middle;whiteSpace=wrap;rounded=0;" vertex="1" parent="1">
          <mxGeometry x="270" width="100" height="30" as="geometry" />
        </mxCell>
        <mxCell id="8Ab9fepXF7-iKCmWJqEk-12" style="edgeStyle=orthogonalEdgeStyle;rounded=0;orthogonalLoop=1;jettySize=auto;html=1;entryX=0.5;entryY=0;entryDx=0;entryDy=0;" edge="1" parent="1" source="8Ab9fepXF7-iKCmWJqEk-2" target="8Ab9fepXF7-iKCmWJqEk-3">
          <mxGeometry relative="1" as="geometry" />
        </mxCell>
        <mxCell id="8Ab9fepXF7-iKCmWJqEk-2" value="小程序" style="rounded=0;whiteSpace=wrap;html=1;fillColor=#60a917;strokeColor=#2D7600;fontColor=#ffffff;" vertex="1" parent="1">
          <mxGeometry x="260" y="40" width="120" height="60" as="geometry" />
        </mxCell>
        <mxCell id="8Ab9fepXF7-iKCmWJqEk-8" style="edgeStyle=orthogonalEdgeStyle;rounded=0;orthogonalLoop=1;jettySize=auto;html=1;entryX=0.667;entryY=0;entryDx=0;entryDy=0;entryPerimeter=0;" edge="1" parent="1" source="8Ab9fepXF7-iKCmWJqEk-3" target="8Ab9fepXF7-iKCmWJqEk-6">
          <mxGeometry relative="1" as="geometry" />
        </mxCell>
        <mxCell id="8Ab9fepXF7-iKCmWJqEk-10" value="10%" style="edgeLabel;html=1;align=center;verticalAlign=middle;resizable=0;points=[];" vertex="1" connectable="0" parent="8Ab9fepXF7-iKCmWJqEk-8">
          <mxGeometry y="-1" relative="1" as="geometry">
            <mxPoint as="offset" />
          </mxGeometry>
        </mxCell>
        <mxCell id="8Ab9fepXF7-iKCmWJqEk-9" style="edgeStyle=orthogonalEdgeStyle;rounded=0;orthogonalLoop=1;jettySize=auto;html=1;entryX=0.523;entryY=0.025;entryDx=0;entryDy=0;entryPerimeter=0;" edge="1" parent="1" source="8Ab9fepXF7-iKCmWJqEk-3" target="8Ab9fepXF7-iKCmWJqEk-7">
          <mxGeometry relative="1" as="geometry" />
        </mxCell>
        <mxCell id="8Ab9fepXF7-iKCmWJqEk-11" value="90%" style="edgeLabel;html=1;align=center;verticalAlign=middle;resizable=0;points=[];" vertex="1" connectable="0" parent="8Ab9fepXF7-iKCmWJqEk-9">
          <mxGeometry x="0.0613" y="-1" relative="1" as="geometry">
            <mxPoint as="offset" />
          </mxGeometry>
        </mxCell>
        <mxCell id="8Ab9fepXF7-iKCmWJqEk-3" value="web" style="rounded=0;whiteSpace=wrap;html=1;fillColor=#1ba1e2;fontColor=#ffffff;strokeColor=#006EAF;" vertex="1" parent="1">
          <mxGeometry x="260" y="140" width="120" height="60" as="geometry" />
        </mxCell>
        <mxCell id="8Ab9fepXF7-iKCmWJqEk-6" value="db" style="shape=cylinder3;whiteSpace=wrap;html=1;boundedLbl=1;backgroundOutline=1;size=15;fillColor=#d80073;fontColor=#ffffff;strokeColor=#A50040;" vertex="1" parent="1">
          <mxGeometry x="140" y="240" width="60" height="80" as="geometry" />
        </mxCell>
        <mxCell id="8Ab9fepXF7-iKCmWJqEk-7" value="" style="sketch=0;aspect=fixed;html=1;points=[];align=center;image;fontSize=12;image=img/lib/mscae/Cache_Redis_Product.svg;" vertex="1" parent="1">
          <mxGeometry x="440" y="250" width="83.33" height="70" as="geometry" />
        </mxCell>
        <mxCell id="8Ab9fepXF7-iKCmWJqEk-13" value="扩容后简单示意图" style="text;html=1;strokeColor=none;fillColor=none;align=center;verticalAlign=middle;whiteSpace=wrap;rounded=0;" vertex="1" parent="1">
          <mxGeometry x="270" y="360" width="100" height="30" as="geometry" />
        </mxCell>
        <mxCell id="8Ab9fepXF7-iKCmWJqEk-31" style="edgeStyle=orthogonalEdgeStyle;rounded=0;orthogonalLoop=1;jettySize=auto;html=1;entryX=0.458;entryY=0;entryDx=0;entryDy=0;entryPerimeter=0;" edge="1" parent="1" source="8Ab9fepXF7-iKCmWJqEk-15" target="8Ab9fepXF7-iKCmWJqEk-23">
          <mxGeometry relative="1" as="geometry" />
        </mxCell>
        <mxCell id="8Ab9fepXF7-iKCmWJqEk-15" value="小程序" style="rounded=0;whiteSpace=wrap;html=1;fillColor=#60a917;strokeColor=#2D7600;fontColor=#ffffff;" vertex="1" parent="1">
          <mxGeometry x="260" y="400" width="120" height="60" as="geometry" />
        </mxCell>
        <mxCell id="8Ab9fepXF7-iKCmWJqEk-20" value="web" style="rounded=0;whiteSpace=wrap;html=1;fillColor=#1ba1e2;fontColor=#ffffff;strokeColor=#006EAF;" vertex="1" parent="1">
          <mxGeometry x="414" y="510" width="120" height="60" as="geometry" />
        </mxCell>
        <mxCell id="8Ab9fepXF7-iKCmWJqEk-21" value="db" style="shape=cylinder3;whiteSpace=wrap;html=1;boundedLbl=1;backgroundOutline=1;size=15;fillColor=#d80073;fontColor=#ffffff;strokeColor=#A50040;" vertex="1" parent="1">
          <mxGeometry x="130" y="650" width="60" height="80" as="geometry" />
        </mxCell>
        <mxCell id="8Ab9fepXF7-iKCmWJqEk-26" value="web" style="rounded=0;whiteSpace=wrap;html=1;fillColor=#1ba1e2;fontColor=#ffffff;strokeColor=#006EAF;" vertex="1" parent="1">
          <mxGeometry x="140" y="510" width="120" height="60" as="geometry" />
        </mxCell>
        <mxCell id="8Ab9fepXF7-iKCmWJqEk-25" value="web" style="rounded=0;whiteSpace=wrap;html=1;fillColor=#1ba1e2;fontColor=#ffffff;strokeColor=#006EAF;" vertex="1" parent="1">
          <mxGeometry x="280" y="510" width="120" height="60" as="geometry" />
        </mxCell>
        <mxCell id="8Ab9fepXF7-iKCmWJqEk-29" value="" style="sketch=0;aspect=fixed;html=1;points=[];align=center;image;fontSize=12;image=img/lib/mscae/Cache_Redis_Product.svg;" vertex="1" parent="1">
          <mxGeometry x="440" y="660" width="83.33" height="70" as="geometry" />
        </mxCell>
        <mxCell id="8Ab9fepXF7-iKCmWJqEk-34" value="10%" style="text;html=1;strokeColor=none;fillColor=none;align=center;verticalAlign=middle;whiteSpace=wrap;rounded=0;" vertex="1" parent="1">
          <mxGeometry x="150" y="600" width="60" height="30" as="geometry" />
        </mxCell>
        <mxCell id="8Ab9fepXF7-iKCmWJqEk-35" value="90%" style="text;html=1;strokeColor=none;fillColor=none;align=center;verticalAlign=middle;whiteSpace=wrap;rounded=0;" vertex="1" parent="1">
          <mxGeometry x="500" y="600" width="60" height="30" as="geometry" />
        </mxCell>
      </root>
    </mxGraphModel>
  </diagram>
</mxfile>
